{
  "source": "C:\\Users\\Peter\\Desktop\\stuff\\MIUN\\quantitative_research\\video_compression\\videos\\BVI-HD\\BVI-HD_CDVL_videos\\ORIG\\CloudsZoom_1920x1080_60fps.mp4",
  "output": "C:\\Users\\Peter\\Desktop\\stuff\\MIUN\\quantitative_research\\video_compression\\compressed_videos\\BVI-HD\\hevc\\1.5\\CloudsZoom_1920x1080_60fps_hevc.mp4",
  "codec": "hevc",
  "ok": "Input #0, mov,mp4,m4a,3gp,3g2,mj2, from 'C:\\Users\\Peter\\Desktop\\stuff\\MIUN\\quantitative_research\\video_compression\\videos\\BVI-HD\\BVI-HD_CDVL_videos\\ORIG\\CloudsZoom_1920x1080_60fps.mp4':\n  Metadata:\n    major_brand     : isom\n    minor_version   : 512\n    compatible_brands: isomiso2avc1mp41\n    encoder         : Lavf54.28.101\n  Duration: 00:00:05.00, start: 0.000000, bitrate: 32589 kb/s\n  Stream #0:0[0x1](und): Video: h264 (High 4:4:4 Predictive) (avc1 / 0x31637661), yuv420p(progressive), 1920x1080, 32586 kb/s, 60 fps, 60 tbr, 60 tbn (default)\n    Metadata:\n      handler_name    : VideoHandler\n      vendor_id       : [0][0][0][0]\n[out#0/mp4 @ 000001ce26db4e40] Codec AVOption b:a (set bitrate (in bits/s)) has not been used for any stream. The most likely reason is either wrong type (e.g. a video option with no video streams) or that it is a private option of some decoder which was not actually used for any stream.\nStream mapping:\n  Stream #0:0 -> #0:0 (h264 (native) -> hevc (libx265))\nPress [q] to stop, [?] for help\n[libx265 @ 000001ce271df040] Unknown option: \"aq-mode.\nx265 [info]: HEVC encoder version 4.1+190-8f11c33ac\nx265 [info]: build info [Windows][GCC 15.1.0][64 bit] 10bit\nx265 [info]: using cpu capabilities: MMX2 SSE2Fast LZCNT SSSE3 SSE4.2 AVX FMA3 BMI2 AVX2\nx265 [info]: Main 10 profile, Level-4.1 (Main tier)\nx265 [info]: Thread pool created using 12 threads\nx265 [info]: Slices                              : 1\nx265 [info]: frame threads / pool features       : 3 / wpp(17 rows)\nx265 [info]: Coding QT: max CU size, min CU size : 64 / 8\nx265 [info]: Residual QT: max TU size, max depth : 32 / 1 inter / 1 intra\nx265 [info]: ME / range / subpel / merge         : star / 57 / 3 / 3\nx265 [info]: Keyframe min / max / scenecut / bias  : 25 / 250 / 40 / 5.00 \nx265 [info]: Lookahead / bframes / badapt        : 25 / 4 / 2\nx265 [info]: b-pyramid / weightp / weightb       : 1 / 1 / 0\nx265 [info]: References / ref-limit  cu / depth  : 4 / on / on\nx265 [info]: AQ: mode / str / qg-size / cu-tree  : 2 / 1.0 / 32 / 1\nx265 [info]: Rate Control / qCompress            : ABR-1500 kbps / 0.60\nx265 [info]: VBV/HRD buffer / max-rate / init    : 1500 / 1500 / 0.750\nx265 [info]: tools: rect limit-modes rd=4 psy-rd=2.00 rdoq=2 psy-rdoq=1.00\nx265 [info]: tools: rskip mode=1 signhide tmvp strong-intra-smoothing lslices=4\nx265 [info]: tools: deblock sao dhdr10-info\nOutput #0, mp4, to 'C:\\Users\\Peter\\Desktop\\stuff\\MIUN\\quantitative_research\\video_compression\\compressed_videos\\BVI-HD\\hevc\\1.5\\CloudsZoom_1920x1080_60fps_hevc.mp4':\n  Metadata:\n    major_brand     : isom\n    minor_version   : 512\n    compatible_brands: isomiso2avc1mp41\n    encoder         : Lavf62.3.100\n  Stream #0:0(und): Video: hevc (hev1 / 0x31766568), yuv420p10le(tv, progressive), 1920x1080, q=2-31, 1500 kb/s, 60 fps, 15360 tbn (default)\n    Metadata:\n      encoder         : Lavc62.11.100 libx265\n      handler_name    : VideoHandler\n      vendor_id       : [0][0][0][0]\n    Side data:\n      cpb: bitrate max/min/avg: 1500000/0/1500000 buffer size: 1500000 vbv_delay: N/A\nframe=    0 fps=0.0 q=0.0 size=       0KiB time=N/A bitrate=N/A speed=N/A elapsed=0:00:00.52    \nframe=    0 fps=0.0 q=0.0 size=       0KiB time=N/A bitrate=N/A speed=N/A elapsed=0:00:01.03    \nframe=    0 fps=0.0 q=0.0 size=       0KiB time=N/A bitrate=N/A speed=N/A elapsed=0:00:01.55    \nframe=    0 fps=0.0 q=0.0 size=       0KiB time=N/A bitrate=N/A speed=N/A elapsed=0:00:02.06    \nframe=    0 fps=0.0 q=0.0 size=       0KiB time=N/A bitrate=N/A speed=N/A elapsed=0:00:02.57    \nframe=    3 fps=1.0 q=43.0 size=       0KiB time=00:00:00.01 bitrate=  21.1kbits/s speed=0.00539x elapsed=0:00:03.09    \nframe=    4 fps=1.1 q=43.0 size=       0KiB time=00:00:00.03 bitrate=  10.6kbits/s speed=0.00922x elapsed=0:00:03.61    \nframe=    5 fps=1.2 q=43.0 size=       0KiB time=00:00:00.05 bitrate=   7.0kbits/s speed=0.0121x elapsed=0:00:04.13    \nframe=    7 fps=1.5 q=42.4 size=       0KiB time=00:00:00.08 bitrate=   4.2kbits/s speed=0.018x elapsed=0:00:04.63    \nframe=    8 fps=1.5 q=39.9 size=       0KiB time=00:00:00.10 bitrate=   3.5kbits/s speed=0.0194x elapsed=0:00:05.16    \nframe=    9 fps=1.6 q=41.0 size=       0KiB time=00:00:00.11 bitrate=   3.0kbits/s speed=0.0206x elapsed=0:00:05.66    \nframe=   11 fps=1.8 q=36.7 size=       0KiB time=00:00:00.15 bitrate=   2.3kbits/s speed=0.0242x elapsed=0:00:06.18    \nframe=   12 fps=1.8 q=33.9 size=       0KiB time=00:00:00.16 bitrate=   2.1kbits/s speed=0.0248x elapsed=0:00:06.71    \nframe=   14 fps=1.9 q=36.5 size=       0KiB time=00:00:00.20 bitrate=   1.8kbits/s speed=0.0277x elapsed=0:00:07.21    \nframe=   14 fps=1.8 q=36.5 size=       0KiB time=00:00:00.20 bitrate=   1.8kbits/s speed=0.0258x elapsed=0:00:07.73    \nframe=   15 fps=1.8 q=32.5 size=       0KiB time=00:00:00.21 bitrate=   1.6kbits/s speed=0.0262x elapsed=0:00:08.25    \nframe=   16 fps=1.8 q=32.5 size=       0KiB time=00:00:00.23 bitrate=   1.5kbits/s speed=0.0266x elapsed=0:00:08.76    \nframe=   18 fps=1.9 q=31.5 size=       0KiB time=00:00:00.26 bitrate=   1.3kbits/s speed=0.0287x elapsed=0:00:09.28    \nframe=   19 fps=1.9 q=32.7 size=       0KiB time=00:00:00.28 bitrate=   1.2kbits/s speed=0.0289x elapsed=0:00:09.79    \nframe=   20 fps=1.9 q=27.1 size=       0KiB time=00:00:00.30 bitrate=   1.2kbits/s speed=0.0291x elapsed=0:00:10.32    \nframe=   20 fps=1.8 q=27.1 size=       0KiB time=00:00:00.30 bitrate=   1.2kbits/s speed=0.0277x elapsed=0:00:10.82    \nframe=   22 fps=1.9 q=22.1 size=       0KiB time=00:00:00.33 bitrate=   1.1kbits/s speed=0.0294x elapsed=0:00:11.34    \nframe=   23 fps=1.9 q=26.5 size=       0KiB time=00:00:00.35 bitrate=   1.0kbits/s speed=0.0295x elapsed=0:00:11.86    \nframe=   24 fps=1.9 q=28.0 size=       0KiB time=00:00:00.36 bitrate=   1.0kbits/s speed=0.0296x elapsed=0:00:12.37    \nframe=   25 fps=1.9 q=22.2 size=       0KiB time=00:00:00.38 bitrate=   0.9kbits/s speed=0.0297x elapsed=0:00:12.89    \nframe=   26 fps=1.9 q=22.8 size=       0KiB time=00:00:00.40 bitrate=   0.9kbits/s speed=0.0298x elapsed=0:00:13.40    \nframe=   27 fps=1.9 q=21.2 size=       0KiB time=00:00:00.41 bitrate=   0.8kbits/s speed=0.0299x elapsed=0:00:13.93    \nframe=   29 fps=2.0 q=22.2 size=       0KiB time=00:00:00.45 bitrate=   0.8kbits/s speed=0.0312x elapsed=0:00:14.43    \nframe=   29 fps=1.9 q=22.2 size=       0KiB time=00:00:00.45 bitrate=   0.8kbits/s speed=0.0301x elapsed=0:00:14.95    \nframe=   31 fps=2.0 q=21.8 size=       0KiB time=00:00:00.48 bitrate=   0.7kbits/s speed=0.0312x elapsed=0:00:15.47    \nframe=   32 fps=2.0 q=20.3 size=       0KiB time=00:00:00.50 bitrate=   0.7kbits/s speed=0.0313x elapsed=0:00:15.98    \nframe=   33 fps=2.0 q=22.5 size=       0KiB time=00:00:00.51 bitrate=   0.7kbits/s speed=0.0313x elapsed=0:00:16.50    \nframe=   34 fps=2.0 q=21.5 size=       0KiB time=00:00:00.53 bitrate=   0.7kbits/s speed=0.0313x elapsed=0:00:17.03    \nframe=   34 fps=1.9 q=21.5 size=       0KiB time=00:00:00.53 bitrate=   0.7kbits/s speed=0.0304x elapsed=0:00:17.55    \nframe=   35 fps=1.9 q=21.3 size=       0KiB time=00:00:00.55 bitrate=   0.6kbits/s speed=0.0304x elapsed=0:00:18.07    \nframe=   36 fps=1.9 q=21.2 size=       0KiB time=00:00:00.56 bitrate=   0.6kbits/s speed=0.0305x elapsed=0:00:18.59    \nframe=   36 fps=1.9 q=21.2 size=       0KiB time=00:00:00.56 bitrate=   0.6kbits/s speed=0.0296x elapsed=0:00:19.12    \nframe=   37 fps=1.9 q=20.7 size=       0KiB time=00:00:00.58 bitrate=   0.6kbits/s speed=0.0297x elapsed=0:00:19.64    \nframe=   38 fps=1.9 q=22.3 size=       0KiB time=00:00:00.60 bitrate=   0.6kbits/s speed=0.0298x elapsed=0:00:20.16    \nframe=   39 fps=1.9 q=20.7 size=       0KiB time=00:00:00.61 bitrate=   0.6kbits/s speed=0.0298x elapsed=0:00:20.68    \nframe=   39 fps=1.8 q=20.7 size=       0KiB time=00:00:00.61 bitrate=   0.6kbits/s speed=0.0291x elapsed=0:00:21.22    \nframe=   40 fps=1.8 q=19.8 size=       0KiB time=00:00:00.63 bitrate=   0.6kbits/s speed=0.0291x elapsed=0:00:21.72    \nframe=   41 fps=1.8 q=20.4 size=       0KiB time=00:00:00.65 bitrate=   0.5kbits/s speed=0.0292x elapsed=0:00:22.25    \nframe=   42 fps=1.8 q=21.6 size=       0KiB time=00:00:00.66 bitrate=   0.5kbits/s speed=0.0293x elapsed=0:00:22.77    \nframe=   43 fps=1.8 q=21.5 size=       0KiB time=00:00:00.68 bitrate=   0.5kbits/s speed=0.0293x elapsed=0:00:23.29    \nframe=   43 fps=1.8 q=21.5 size=       0KiB time=00:00:00.68 bitrate=   0.5kbits/s speed=0.0287x elapsed=0:00:23.81    \nframe=   44 fps=1.8 q=21.2 size=       0KiB time=00:00:00.70 bitrate=   0.5kbits/s speed=0.0287x elapsed=0:00:24.35    \nframe=   44 fps=1.8 q=21.2 size=       0KiB time=00:00:00.70 bitrate=   0.5kbits/s speed=0.0281x elapsed=0:00:24.87    \nframe=   45 fps=1.8 q=20.8 size=       0KiB time=00:00:00.71 bitrate=   0.5kbits/s speed=0.0282x elapsed=0:00:25.39    \nframe=   45 fps=1.7 q=20.8 size=       0KiB time=00:00:00.71 bitrate=   0.5kbits/s speed=0.0276x elapsed=0:00:25.93    \nframe=   46 fps=1.7 q=20.8 size=       0KiB time=00:00:00.73 bitrate=   0.5kbits/s speed=0.0277x elapsed=0:00:26.44    \nframe=   47 fps=1.7 q=20.4 size=       0KiB time=00:00:00.75 bitrate=   0.5kbits/s speed=0.0278x elapsed=0:00:26.97    \nframe=   48 fps=1.7 q=20.5 size=       0KiB time=00:00:00.76 bitrate=   0.5kbits/s speed=0.0279x elapsed=0:00:27.48    \nframe=   48 fps=1.7 q=20.5 size=       0KiB time=00:00:00.76 bitrate=   0.5kbits/s speed=0.0274x elapsed=0:00:27.99    \nframe=   49 fps=1.7 q=20.6 size=       0KiB time=00:00:00.78 bitrate=   0.4kbits/s speed=0.0275x elapsed=0:00:28.52    \nframe=   49 fps=1.7 q=20.6 size=       0KiB time=00:00:00.78 bitrate=   0.4kbits/s speed=0.027x elapsed=0:00:29.05    \nframe=   50 fps=1.7 q=19.1 size=       0KiB time=00:00:00.80 bitrate=   0.4kbits/s speed=0.0271x elapsed=0:00:29.56    \nframe=   51 fps=1.7 q=19.6 size=       0KiB time=00:00:00.81 bitrate=   0.4kbits/s speed=0.0271x elapsed=0:00:30.08    \nframe=   51 fps=1.7 q=19.6 size=       0KiB time=00:00:00.81 bitrate=   0.4kbits/s speed=0.0267x elapsed=0:00:30.60    \nframe=   52 fps=1.7 q=19.0 size=       0KiB time=00:00:00.83 bitrate=   0.4kbits/s speed=0.0268x elapsed=0:00:31.12    \nframe=   52 fps=1.6 q=19.0 size=       0KiB time=00:00:00.83 bitrate=   0.4kbits/s speed=0.0263x elapsed=0:00:31.65    \nframe=   53 fps=1.6 q=20.8 size=       0KiB time=00:00:00.85 bitrate=   0.4kbits/s speed=0.0264x elapsed=0:00:32.16    \nframe=   54 fps=1.7 q=20.0 size=       0KiB time=00:00:00.86 bitrate=   0.4kbits/s speed=0.0265x elapsed=0:00:32.68    \nframe=   54 fps=1.6 q=20.0 size=       0KiB time=00:00:00.86 bitrate=   0.4kbits/s speed=0.0261x elapsed=0:00:33.21    \nframe=   54 fps=1.6 q=20.0 size=       0KiB time=00:00:00.86 bitrate=   0.4kbits/s speed=0.0257x elapsed=0:00:33.73    \nframe=   54 fps=1.6 q=20.0 size=       0KiB time=00:00:00.86 bitrate=   0.4kbits/s speed=0.0253x elapsed=0:00:34.25    \nframe=   55 fps=1.6 q=20.6 size=       0KiB time=00:00:00.88 bitrate=   0.4kbits/s speed=0.0254x elapsed=0:00:34.77    \nframe=   56 fps=1.6 q=20.5 size=       0KiB time=00:00:00.90 bitrate=   0.4kbits/s speed=0.0255x elapsed=0:00:35.28    \nframe=   57 fps=1.6 q=17.8 size=       0KiB time=00:00:00.91 bitrate=   0.4kbits/s speed=0.0256x elapsed=0:00:35.81    \nframe=   57 fps=1.6 q=17.8 size=       0KiB time=00:00:00.91 bitrate=   0.4kbits/s speed=0.0252x elapsed=0:00:36.32    \nframe=   58 fps=1.6 q=20.7 size=       0KiB time=00:00:00.93 bitrate=   0.4kbits/s speed=0.0253x elapsed=0:00:36.85    \nframe=   58 fps=1.6 q=20.7 size=       0KiB time=00:00:00.93 bitrate=   0.4kbits/s speed=0.025x elapsed=0:00:37.38    \nframe=   59 fps=1.6 q=20.4 size=       0KiB time=00:00:00.95 bitrate=   0.4kbits/s speed=0.0251x elapsed=0:00:37.89    \nframe=   59 fps=1.5 q=20.4 size=       0KiB time=00:00:00.95 bitrate=   0.4kbits/s speed=0.0247x elapsed=0:00:38.40    \nframe=   59 fps=1.5 q=20.4 size=       0KiB time=00:00:00.95 bitrate=   0.4kbits/s speed=0.0244x elapsed=0:00:38.94    \nframe=   59 fps=1.5 q=20.4 size=       0KiB time=00:00:00.95 bitrate=   0.4kbits/s speed=0.0241x elapsed=0:00:39.48    \nframe=   60 fps=1.5 q=21.3 size=       0KiB time=00:00:00.96 bitrate=   0.4kbits/s speed=0.0242x elapsed=0:00:40.01    \nframe=   60 fps=1.5 q=21.3 size=       0KiB time=00:00:00.96 bitrate=   0.4kbits/s speed=0.0238x elapsed=0:00:40.54    \nframe=   61 fps=1.5 q=21.1 size=       0KiB time=00:00:00.98 bitrate=   0.4kbits/s speed=0.0239x elapsed=0:00:41.07    \nframe=   61 fps=1.5 q=21.1 size=       0KiB time=00:00:00.98 bitrate=   0.4kbits/s speed=0.0236x elapsed=0:00:41.59    \nframe=   62 fps=1.5 q=16.2 size=       0KiB time=00:00:01.00 bitrate=   0.4kbits/s speed=0.0237x elapsed=0:00:42.12    \nframe=   63 fps=1.5 q=21.6 size=       0KiB time=00:00:01.01 bitrate=   0.3kbits/s speed=0.0238x elapsed=0:00:42.65    \nframe=   63 fps=1.5 q=21.6 size=       0KiB time=00:00:01.01 bitrate=   0.3kbits/s speed=0.0235x elapsed=0:00:43.19    \nframe=   63 fps=1.4 q=21.6 size=       0KiB time=00:00:01.01 bitrate=   0.3kbits/s speed=0.0232x elapsed=0:00:43.73    \nframe=   64 fps=1.4 q=21.4 size=       0KiB time=00:00:01.03 bitrate=   0.3kbits/s speed=0.0233x elapsed=0:00:44.25    \nframe=   64 fps=1.4 q=21.4 size=       0KiB time=00:00:01.03 bitrate=   0.3kbits/s speed=0.0231x elapsed=0:00:44.77    \nframe=   64 fps=1.4 q=21.4 size=       0KiB time=00:00:01.03 bitrate=   0.3kbits/s speed=0.0228x elapsed=0:00:45.29    \nframe=   64 fps=1.4 q=21.4 size=       0KiB time=00:00:01.03 bitrate=   0.3kbits/s speed=0.0225x elapsed=0:00:45.83    \nframe=   64 fps=1.4 q=21.4 size=       0KiB time=00:00:01.03 bitrate=   0.3kbits/s speed=0.0223x elapsed=0:00:46.35    \nframe=   65 fps=1.4 q=23.1 size=       0KiB time=00:00:01.05 bitrate=   0.3kbits/s speed=0.0224x elapsed=0:00:46.86    \nframe=   65 fps=1.4 q=23.1 size=       0KiB time=00:00:01.05 bitrate=   0.3kbits/s speed=0.0222x elapsed=0:00:47.39    \nframe=   66 fps=1.4 q=23.5 size=       0KiB time=00:00:01.06 bitrate=   0.3kbits/s speed=0.0223x elapsed=0:00:47.90    \nframe=   66 fps=1.4 q=23.5 size=       0KiB time=00:00:01.06 bitrate=   0.3kbits/s speed=0.022x elapsed=0:00:48.45    \nframe=   67 fps=1.4 q=16.8 size=       0KiB time=00:00:01.08 bitrate=   0.3kbits/s speed=0.0221x elapsed=0:00:48.97    \nframe=   68 fps=1.4 q=22.9 size=       0KiB time=00:00:01.10 bitrate=   0.3kbits/s speed=0.0222x elapsed=0:00:49.52    \nframe=   68 fps=1.4 q=22.9 size=       0KiB time=00:00:01.10 bitrate=   0.3kbits/s speed=0.022x elapsed=0:00:50.03    \nframe=   69 fps=1.4 q=23.7 size=       0KiB time=00:00:01.11 bitrate=   0.3kbits/s speed=0.0221x elapsed=0:00:50.56    \nframe=   69 fps=1.4 q=23.7 size=       0KiB time=00:00:01.11 bitrate=   0.3kbits/s speed=0.0219x elapsed=0:00:51.08    \nframe=   69 fps=1.3 q=23.7 size=       0KiB time=00:00:01.11 bitrate=   0.3kbits/s speed=0.0216x elapsed=0:00:51.62    \nframe=   69 fps=1.3 q=23.7 size=       0KiB time=00:00:01.11 bitrate=   0.3kbits/s speed=0.0214x elapsed=0:00:52.13    \nframe=   69 fps=1.3 q=23.7 size=       0KiB time=00:00:01.11 bitrate=   0.3kbits/s speed=0.0212x elapsed=0:00:52.67    \nframe=   70 fps=1.3 q=22.2 size=       0KiB time=00:00:01.13 bitrate=   0.3kbits/s speed=0.0213x elapsed=0:00:53.19    \nframe=   70 fps=1.3 q=22.2 size=       0KiB time=00:00:01.13 bitrate=   0.3kbits/s speed=0.0211x elapsed=0:00:53.72    \nframe=   71 fps=1.3 q=22.4 size=       0KiB time=00:00:01.15 bitrate=   0.3kbits/s speed=0.0212x elapsed=0:00:54.28    \nframe=   72 fps=1.3 q=16.5 size=       0KiB time=00:00:01.16 bitrate=   0.3kbits/s speed=0.0213x elapsed=0:00:54.80    \nframe=   73 fps=1.3 q=21.2 size=       0KiB time=00:00:01.18 bitrate=   0.3kbits/s speed=0.0214x elapsed=0:00:55.31    \nframe=   73 fps=1.3 q=21.2 size=       0KiB time=00:00:01.18 bitrate=   0.3kbits/s speed=0.0212x elapsed=0:00:55.83    \nframe=   74 fps=1.3 q=22.9 size=       0KiB time=00:00:01.20 bitrate=   0.3kbits/s speed=0.0213x elapsed=0:00:56.35    \nframe=   74 fps=1.3 q=22.9 size=       0KiB time=00:00:01.20 bitrate=   0.3kbits/s speed=0.0211x elapsed=0:00:56.89    \nframe=   75 fps=1.3 q=22.8 size=       0KiB time=00:00:01.21 bitrate=   0.3kbits/s speed=0.0212x elapsed=0:00:57.40    \nframe=   75 fps=1.3 q=22.8 size=       0KiB time=00:00:01.21 bitrate=   0.3kbits/s speed=0.021x elapsed=0:00:57.92    \nframe=   76 fps=1.3 q=23.3 size=       0KiB time=00:00:01.23 bitrate=   0.3kbits/s speed=0.0211x elapsed=0:00:58.44    \nframe=   77 fps=1.3 q=16.6 size=       0KiB time=00:00:01.25 bitrate=   0.3kbits/s speed=0.0212x elapsed=0:00:58.96    \nframe=   78 fps=1.3 q=21.7 size=       0KiB time=00:00:01.26 bitrate=   0.3kbits/s speed=0.0213x elapsed=0:00:59.51    \nframe=   79 fps=1.3 q=23.8 size=       0KiB time=00:00:01.28 bitrate=   0.3kbits/s speed=0.0214x elapsed=0:01:00.05    \nframe=   79 fps=1.3 q=23.8 size=       0KiB time=00:00:01.28 bitrate=   0.3kbits/s speed=0.0212x elapsed=0:01:00.61    \nframe=   79 fps=1.3 q=23.8 size=       0KiB time=00:00:01.28 bitrate=   0.3kbits/s speed=0.021x elapsed=0:01:01.14    \nframe=   79 fps=1.3 q=23.8 size=       0KiB time=00:00:01.28 bitrate=   0.3kbits/s speed=0.0208x elapsed=0:01:01.69    \nframe=   79 fps=1.3 q=23.8 size=       0KiB time=00:00:01.28 bitrate=   0.3kbits/s speed=0.0206x elapsed=0:01:02.20    \nframe=   81 fps=1.3 q=23.5 size=       0KiB time=00:00:01.31 bitrate=   0.3kbits/s speed=0.021x elapsed=0:01:02.72    \nframe=   81 fps=1.3 q=23.5 size=       0KiB time=00:00:01.31 bitrate=   0.3kbits/s speed=0.0208x elapsed=0:01:03.24    \nframe=   81 fps=1.3 q=23.5 size=       0KiB time=00:00:01.31 bitrate=   0.3kbits/s speed=0.0206x elapsed=0:01:03.78    \nframe=   81 fps=1.3 q=23.5 size=       0KiB time=00:00:01.31 bitrate=   0.3kbits/s speed=0.0205x elapsed=0:01:04.30    \nframe=   83 fps=1.3 q=21.7 size=       0KiB time=00:00:01.35 bitrate=   0.3kbits/s speed=0.0208x elapsed=0:01:04.84    \nframe=   84 fps=1.3 q=24.6 size=       0KiB time=00:00:01.36 bitrate=   0.3kbits/s speed=0.0209x elapsed=0:01:05.36    \nframe=   84 fps=1.3 q=24.6 size=       0KiB time=00:00:01.36 bitrate=   0.3kbits/s speed=0.0207x elapsed=0:01:05.89    \nframe=   84 fps=1.3 q=24.6 size=       0KiB time=00:00:01.36 bitrate=   0.3kbits/s speed=0.0206x elapsed=0:01:06.41    \nframe=   84 fps=1.3 q=24.6 size=       0KiB time=00:00:01.36 bitrate=   0.3kbits/s speed=0.0204x elapsed=0:01:06.94    \nframe=   85 fps=1.3 q=23.9 size=       0KiB time=00:00:01.38 bitrate=   0.3kbits/s speed=0.0205x elapsed=0:01:07.46    \nframe=   85 fps=1.3 q=23.9 size=       0KiB time=00:00:01.38 bitrate=   0.3kbits/s speed=0.0203x elapsed=0:01:07.98    \nframe=   86 fps=1.3 q=22.6 size=       0KiB time=00:00:01.40 bitrate=   0.3kbits/s speed=0.0204x elapsed=0:01:08.50    \nframe=   87 fps=1.3 q=16.5 size=       0KiB time=00:00:01.41 bitrate=   0.2kbits/s speed=0.0205x elapsed=0:01:09.01    \nframe=   88 fps=1.3 q=20.8 size=       0KiB time=00:00:01.43 bitrate=   0.2kbits/s speed=0.0206x elapsed=0:01:09.53    \nframe=   89 fps=1.3 q=23.9 size=       0KiB time=00:00:01.45 bitrate=   0.2kbits/s speed=0.0207x elapsed=0:01:10.07    \nframe=   89 fps=1.3 q=23.9 size=       0KiB time=00:00:01.45 bitrate=   0.2kbits/s speed=0.0205x elapsed=0:01:10.58    \nframe=   89 fps=1.3 q=23.9 size=       0KiB time=00:00:01.45 bitrate=   0.2kbits/s speed=0.0204x elapsed=0:01:11.11    \nframe=   90 fps=1.3 q=22.3 size=       0KiB time=00:00:01.46 bitrate=   0.2kbits/s speed=0.0205x elapsed=0:01:11.63    \nframe=   91 fps=1.3 q=23.8 size=       0KiB time=00:00:01.48 bitrate=   0.2kbits/s speed=0.0206x elapsed=0:01:12.14    \nframe=   91 fps=1.3 q=23.8 size=       0KiB time=00:00:01.48 bitrate=   0.2kbits/s speed=0.0204x elapsed=0:01:12.65    \nframe=   93 fps=1.3 q=21.7 size=       0KiB time=00:00:01.51 bitrate=   0.2kbits/s speed=0.0207x elapsed=0:01:13.18    \nframe=   94 fps=1.3 q=25.1 size=       0KiB time=00:00:01.53 bitrate=   0.2kbits/s speed=0.0208x elapsed=0:01:13.70    \nframe=   94 fps=1.3 q=25.1 size=       0KiB time=00:00:01.53 bitrate=   0.2kbits/s speed=0.0207x elapsed=0:01:14.23    \nframe=   94 fps=1.3 q=25.1 size=       0KiB time=00:00:01.53 bitrate=   0.2kbits/s speed=0.0205x elapsed=0:01:14.75    \nframe=   94 fps=1.2 q=25.1 size=       0KiB time=00:00:01.53 bitrate=   0.2kbits/s speed=0.0204x elapsed=0:01:15.26    \nframe=   95 fps=1.3 q=24.6 size=       0KiB time=00:00:01.55 bitrate=   0.2kbits/s speed=0.0205x elapsed=0:01:15.79    \nframe=   96 fps=1.3 q=24.5 size=       0KiB time=00:00:01.56 bitrate=   0.2kbits/s speed=0.0205x elapsed=0:01:16.29    \nframe=   96 fps=1.2 q=24.5 size=       0KiB time=00:00:01.56 bitrate=   0.2kbits/s speed=0.0204x elapsed=0:01:16.81    \nframe=   97 fps=1.3 q=16.8 size=       0KiB time=00:00:01.58 bitrate=   0.2kbits/s speed=0.0205x elapsed=0:01:17.33    \nframe=   99 fps=1.3 q=24.2 size=     256KiB time=00:00:01.61 bitrate=1297.4kbits/s speed=0.0208x elapsed=0:01:17.84    \nframe=   99 fps=1.3 q=24.2 size=     256KiB time=00:00:01.61 bitrate=1297.4kbits/s speed=0.0206x elapsed=0:01:18.37    \nframe=  100 fps=1.3 q=23.7 size=     256KiB time=00:00:01.63 bitrate=1284.2kbits/s speed=0.0207x elapsed=0:01:18.93    \nframe=  101 fps=1.3 q=24.9 size=     256KiB time=00:00:01.65 bitrate=1271.2kbits/s speed=0.0208x elapsed=0:01:19.45    \nframe=  102 fps=1.3 q=16.8 size=     256KiB time=00:00:01.66 bitrate=1258.5kbits/s speed=0.0208x elapsed=0:01:19.98    \nframe=  103 fps=1.3 q=23.1 size=     256KiB time=00:00:01.68 bitrate=1246.0kbits/s speed=0.0209x elapsed=0:01:20.50    \nframe=  104 fps=1.3 q=24.7 size=     256KiB time=00:00:01.70 bitrate=1233.8kbits/s speed=0.021x elapsed=0:01:21.02    \nframe=  104 fps=1.3 q=24.7 size=     256KiB time=00:00:01.70 bitrate=1233.8kbits/s speed=0.0208x elapsed=0:01:21.54    \nframe=  105 fps=1.3 q=23.7 size=     256KiB time=00:00:01.71 bitrate=1221.8kbits/s speed=0.0209x elapsed=0:01:22.06    \nframe=  106 fps=1.3 q=24.8 size=     256KiB time=00:00:01.73 bitrate=1210.1kbits/s speed=0.021x elapsed=0:01:22.59    \nframe=  107 fps=1.3 q=16.6 size=     256KiB time=00:00:01.75 bitrate=1198.6kbits/s speed=0.0211x elapsed=0:01:23.11    \nframe=  107 fps=1.3 q=16.6 size=     256KiB time=00:00:01.75 bitrate=1198.6kbits/s speed=0.0209x elapsed=0:01:23.63    \nframe=  108 fps=1.3 q=21.7 size=     256KiB time=00:00:01.76 bitrate=1187.3kbits/s speed=0.021x elapsed=0:01:24.13    \nframe=  109 fps=1.3 q=23.7 size=     256KiB time=00:00:01.78 bitrate=1176.2kbits/s speed=0.0211x elapsed=0:01:24.66    \nframe=  109 fps=1.3 q=23.7 size=     256KiB time=00:00:01.78 bitrate=1176.2kbits/s speed=0.0209x elapsed=0:01:25.19    \nframe=  109 fps=1.3 q=23.7 size=     256KiB time=00:00:01.78 bitrate=1176.2kbits/s speed=0.0208x elapsed=0:01:25.70    \nframe=  110 fps=1.3 q=23.7 size=     256KiB time=00:00:01.80 bitrate=1165.3kbits/s speed=0.0209x elapsed=0:01:26.23    \nframe=  110 fps=1.3 q=23.7 size=     256KiB time=00:00:01.80 bitrate=1165.3kbits/s speed=0.0207x elapsed=0:01:26.74    \nframe=  110 fps=1.3 q=23.7 size=     256KiB time=00:00:01.80 bitrate=1165.3kbits/s speed=0.0206x elapsed=0:01:27.28    \nframe=  111 fps=1.3 q=23.0 size=     256KiB time=00:00:01.81 bitrate=1154.6kbits/s speed=0.0207x elapsed=0:01:27.81    \nframe=  111 fps=1.3 q=23.0 size=     256KiB time=00:00:01.81 bitrate=1154.6kbits/s speed=0.0206x elapsed=0:01:28.35    \nframe=  113 fps=1.3 q=22.2 size=     256KiB time=00:00:01.85 bitrate=1133.8kbits/s speed=0.0208x elapsed=0:01:28.87    \nframe=  114 fps=1.3 q=23.7 size=     256KiB time=00:00:01.86 bitrate=1123.7kbits/s speed=0.0209x elapsed=0:01:29.40    \nframe=  114 fps=1.3 q=23.7 size=     256KiB time=00:00:01.86 bitrate=1123.7kbits/s speed=0.0208x elapsed=0:01:29.95    \nframe=  114 fps=1.3 q=23.7 size=     256KiB time=00:00:01.86 bitrate=1123.7kbits/s speed=0.0206x elapsed=0:01:30.51    \nframe=  114 fps=1.3 q=23.7 size=     256KiB time=00:00:01.86 bitrate=1123.7kbits/s speed=0.0205x elapsed=0:01:31.04    \nframe=  114 fps=1.2 q=23.7 size=     256KiB time=00:00:01.86 bitrate=1123.7kbits/s speed=0.0204x elapsed=0:01:31.55    \nframe=  115 fps=1.2 q=24.9 size=     256KiB time=00:00:01.88 bitrate=1113.7kbits/s speed=0.0205x elapsed=0:01:32.08    \nframe=  116 fps=1.3 q=23.4 size=     256KiB time=00:00:01.90 bitrate=1103.9kbits/s speed=0.0205x elapsed=0:01:32.60    \nframe=  116 fps=1.2 q=23.4 size=     256KiB time=00:00:01.90 bitrate=1103.9kbits/s speed=0.0204x elapsed=0:01:33.11    \nframe=  116 fps=1.2 q=23.4 size=     256KiB time=00:00:01.90 bitrate=1103.9kbits/s speed=0.0203x elapsed=0:01:33.66    \nframe=  117 fps=1.2 q=16.5 size=     256KiB time=00:00:01.91 bitrate=1094.3kbits/s speed=0.0203x elapsed=0:01:34.19    \nframe=  118 fps=1.2 q=21.8 size=     256KiB time=00:00:01.93 bitrate=1084.9kbits/s speed=0.0204x elapsed=0:01:34.72    \nframe=  118 fps=1.2 q=21.8 size=     256KiB time=00:00:01.93 bitrate=1084.9kbits/s speed=0.0203x elapsed=0:01:35.27    \nframe=  118 fps=1.2 q=21.8 size=     256KiB time=00:00:01.93 bitrate=1084.9kbits/s speed=0.0202x elapsed=0:01:35.77    \nframe=  120 fps=1.2 q=22.5 size=     256KiB time=00:00:01.96 bitrate=1066.5kbits/s speed=0.0204x elapsed=0:01:36.30    \nframe=  120 fps=1.2 q=22.5 size=     256KiB time=00:00:01.96 bitrate=1066.5kbits/s speed=0.0203x elapsed=0:01:36.83    \nframe=  121 fps=1.2 q=22.9 size=     256KiB time=00:00:01.98 bitrate=1057.6kbits/s speed=0.0204x elapsed=0:01:37.35    \nframe=  121 fps=1.2 q=22.9 size=     256KiB time=00:00:01.98 bitrate=1057.6kbits/s speed=0.0203x elapsed=0:01:37.87    \nframe=  122 fps=1.2 q=16.5 size=     256KiB time=00:00:02.00 bitrate=1048.8kbits/s speed=0.0203x elapsed=0:01:38.40    \nframe=  123 fps=1.2 q=21.5 size=     256KiB time=00:00:02.01 bitrate=1040.1kbits/s speed=0.0204x elapsed=0:01:38.92    \nframe=  123 fps=1.2 q=21.5 size=     256KiB time=00:00:02.01 bitrate=1040.1kbits/s speed=0.0203x elapsed=0:01:39.46    \nframe=  123 fps=1.2 q=21.5 size=     256KiB time=00:00:02.01 bitrate=1040.1kbits/s speed=0.0202x elapsed=0:01:39.98    \nframe=  124 fps=1.2 q=23.6 size=     256KiB time=00:00:02.03 bitrate=1031.6kbits/s speed=0.0202x elapsed=0:01:40.50    \nframe=  125 fps=1.2 q=22.6 size=     256KiB time=00:00:02.05 bitrate=1023.2kbits/s speed=0.0203x elapsed=0:01:41.02    \nframe=  126 fps=1.2 q=22.7 size=     256KiB time=00:00:02.06 bitrate=1014.9kbits/s speed=0.0204x elapsed=0:01:41.52    \nframe=  126 fps=1.2 q=22.7 size=     256KiB time=00:00:02.06 bitrate=1014.9kbits/s speed=0.0202x elapsed=0:01:42.05    \nframe=  126 fps=1.2 q=22.7 size=     256KiB time=00:00:02.06 bitrate=1014.9kbits/s speed=0.0201x elapsed=0:01:42.59    \nframe=  127 fps=1.2 q=16.6 size=     256KiB time=00:00:02.08 bitrate=1006.8kbits/s speed=0.0202x elapsed=0:01:43.10    \nframe=  127 fps=1.2 q=16.6 size=     256KiB time=00:00:02.08 bitrate=1006.8kbits/s speed=0.0201x elapsed=0:01:43.63    \nframe=  129 fps=1.2 q=24.1 size=     256KiB time=00:00:02.11 bitrate= 990.9kbits/s speed=0.0203x elapsed=0:01:44.13    \nframe=  129 fps=1.2 q=24.1 size=     256KiB time=00:00:02.11 bitrate= 990.9kbits/s speed=0.0202x elapsed=0:01:44.67    \nframe=  130 fps=1.2 q=23.4 size=     256KiB time=00:00:02.13 bitrate= 983.2kbits/s speed=0.0203x elapsed=0:01:45.19    \nframe=  131 fps=1.2 q=23.3 size=     256KiB time=00:00:02.15 bitrate= 975.6kbits/s speed=0.0203x elapsed=0:01:45.70    \nframe=  131 fps=1.2 q=23.3 size=     256KiB time=00:00:02.15 bitrate= 975.6kbits/s speed=0.0202x elapsed=0:01:46.22    \nframe=  131 fps=1.2 q=23.3 size=     256KiB time=00:00:02.15 bitrate= 975.6kbits/s speed=0.0201x elapsed=0:01:46.75    \nframe=  132 fps=1.2 q=16.7 size=     256KiB time=00:00:02.16 bitrate= 968.1kbits/s speed=0.0202x elapsed=0:01:47.28    \nframe=  133 fps=1.2 q=21.4 size=     256KiB time=00:00:02.18 bitrate= 960.7kbits/s speed=0.0203x elapsed=0:01:47.80    \nframe=  133 fps=1.2 q=21.4 size=     256KiB time=00:00:02.18 bitrate= 960.7kbits/s speed=0.0202x elapsed=0:01:48.32    \nframe=  134 fps=1.2 q=24.8 size=     256KiB time=00:00:02.20 bitrate= 953.4kbits/s speed=0.0202x elapsed=0:01:48.84    \nframe=  135 fps=1.2 q=22.8 size=     256KiB time=00:00:02.21 bitrate= 946.2kbits/s speed=0.0203x elapsed=0:01:49.36    \nframe=  136 fps=1.2 q=23.4 size=     256KiB time=00:00:02.23 bitrate= 939.2kbits/s speed=0.0203x elapsed=0:01:49.88    \nframe=  136 fps=1.2 q=23.4 size=     256KiB time=00:00:02.23 bitrate= 939.2kbits/s speed=0.0202x elapsed=0:01:50.41    \nframe=  136 fps=1.2 q=23.4 size=     256KiB time=00:00:02.23 bitrate= 939.2kbits/s speed=0.0201x elapsed=0:01:50.94    \nframe=  136 fps=1.2 q=23.4 size=     256KiB time=00:00:02.23 bitrate= 939.2kbits/s speed=0.02x elapsed=0:01:51.48    \nframe=  137 fps=1.2 q=16.3 size=     256KiB time=00:00:02.25 bitrate= 932.2kbits/s speed=0.0201x elapsed=0:01:52.02    \nframe=  139 fps=1.2 q=24.7 size=     256KiB time=00:00:02.28 bitrate= 918.6kbits/s speed=0.0203x elapsed=0:01:52.55    \nframe=  140 fps=1.2 q=25.1 size=     256KiB time=00:00:02.30 bitrate= 912.0kbits/s speed=0.0203x elapsed=0:01:53.08    \nframe=  141 fps=1.2 q=23.6 size=     256KiB time=00:00:02.31 bitrate= 905.4kbits/s speed=0.0204x elapsed=0:01:53.60    \nframe=  143 fps=1.3 q=21.6 size=     256KiB time=00:00:02.35 bitrate= 892.6kbits/s speed=0.0206x elapsed=0:01:54.11    \nframe=  145 fps=1.3 q=22.9 size=     256KiB time=00:00:02.38 bitrate= 880.1kbits/s speed=0.0208x elapsed=0:01:54.63    \nframe=  145 fps=1.3 q=22.9 size=     256KiB time=00:00:02.38 bitrate= 880.1kbits/s speed=0.0207x elapsed=0:01:55.13    \nframe=  147 fps=1.3 q=16.5 size=     256KiB time=00:00:02.41 bitrate= 867.9kbits/s speed=0.0209x elapsed=0:01:55.66    \nframe=  149 fps=1.3 q=22.8 size=     256KiB time=00:00:02.45 bitrate= 856.1kbits/s speed=0.0211x elapsed=0:01:56.18    \nframe=  150 fps=1.3 q=23.2 size=     256KiB time=00:00:02.46 bitrate= 850.3kbits/s speed=0.0211x elapsed=0:01:56.68    \nframe=  152 fps=1.3 q=16.7 size=     256KiB time=00:00:02.50 bitrate= 839.0kbits/s speed=0.0213x elapsed=0:01:57.20    \nframe=  153 fps=1.3 q=21.5 size=     256KiB time=00:00:02.51 bitrate= 833.4kbits/s speed=0.0214x elapsed=0:01:57.72    \nframe=  154 fps=1.3 q=24.0 size=     256KiB time=00:00:02.53 bitrate= 828.0kbits/s speed=0.0214x elapsed=0:01:58.24    \nframe=  156 fps=1.3 q=23.0 size=     256KiB time=00:00:02.56 bitrate= 817.2kbits/s speed=0.0216x elapsed=0:01:58.76    \nframe=  157 fps=1.3 q=16.6 size=     256KiB time=00:00:02.58 bitrate= 811.9kbits/s speed=0.0217x elapsed=0:01:59.28    \nframe=  158 fps=1.3 q=22.1 size=     256KiB time=00:00:02.60 bitrate= 806.7kbits/s speed=0.0217x elapsed=0:01:59.79    \nframe=  160 fps=1.3 q=23.7 size=     256KiB time=00:00:02.63 bitrate= 796.5kbits/s speed=0.0219x elapsed=0:02:00.31    \nframe=  161 fps=1.3 q=23.9 size=     256KiB time=00:00:02.65 bitrate= 791.5kbits/s speed=0.0219x elapsed=0:02:00.83    \nframe=  163 fps=1.3 q=22.1 size=     256KiB time=00:00:02.68 bitrate= 781.7kbits/s speed=0.0221x elapsed=0:02:01.34    \nframe=  164 fps=1.3 q=24.5 size=     256KiB time=00:00:02.70 bitrate= 776.9kbits/s speed=0.0222x elapsed=0:02:01.86    \nframe=  166 fps=1.4 q=25.2 size=     256KiB time=00:00:02.73 bitrate= 767.4kbits/s speed=0.0223x elapsed=0:02:02.37    \nframe=  168 fps=1.4 q=22.5 size=     256KiB time=00:00:02.76 bitrate= 758.1kbits/s speed=0.0225x elapsed=0:02:02.89    \nframe=  170 fps=1.4 q=23.7 size=     256KiB time=00:00:02.80 bitrate= 749.1kbits/s speed=0.0227x elapsed=0:02:03.41    \nframe=  171 fps=1.4 q=23.6 size=     256KiB time=00:00:02.81 bitrate= 744.7kbits/s speed=0.0227x elapsed=0:02:03.93    \nframe=  173 fps=1.4 q=21.8 size=     256KiB time=00:00:02.85 bitrate= 736.0kbits/s speed=0.0229x elapsed=0:02:04.45    \nframe=  175 fps=1.4 q=23.3 size=     256KiB time=00:00:02.88 bitrate= 727.5kbits/s speed=0.0231x elapsed=0:02:04.97    \nframe=  176 fps=1.4 q=23.9 size=     256KiB time=00:00:02.90 bitrate= 723.3kbits/s speed=0.0231x elapsed=0:02:05.48    \nframe=  178 fps=1.4 q=22.4 size=     256KiB time=00:00:02.93 bitrate= 715.1kbits/s speed=0.0233x elapsed=0:02:06.00    \nframe=  179 fps=1.4 q=24.2 size=     256KiB time=00:00:02.95 bitrate= 711.0kbits/s speed=0.0233x elapsed=0:02:06.52    \nframe=  181 fps=1.4 q=23.9 size=     512KiB time=00:00:02.98 bitrate=1406.0kbits/s speed=0.0235x elapsed=0:02:07.04    \nframe=  181 fps=1.4 q=23.9 size=     512KiB time=00:00:02.98 bitrate=1406.0kbits/s speed=0.0234x elapsed=0:02:07.56    \nframe=  182 fps=1.4 q=16.3 size=     512KiB time=00:00:03.00 bitrate=1398.2kbits/s speed=0.0234x elapsed=0:02:08.09    \nframe=  183 fps=1.4 q=22.0 size=     512KiB time=00:00:03.01 bitrate=1390.5kbits/s speed=0.0235x elapsed=0:02:08.60    \nframe=  184 fps=1.4 q=25.2 size=     512KiB time=00:00:03.03 bitrate=1382.9kbits/s speed=0.0235x elapsed=0:02:09.15    \nframe=  185 fps=1.4 q=24.1 size=     512KiB time=00:00:03.05 bitrate=1375.3kbits/s speed=0.0235x elapsed=0:02:09.69    \nframe=  185 fps=1.4 q=24.1 size=     512KiB time=00:00:03.05 bitrate=1375.3kbits/s speed=0.0234x elapsed=0:02:10.22    \nframe=  187 fps=1.4 q=16.1 size=     512KiB time=00:00:03.08 bitrate=1360.4kbits/s speed=0.0236x elapsed=0:02:10.76    \nframe=  188 fps=1.4 q=21.9 size=     512KiB time=00:00:03.10 bitrate=1353.1kbits/s speed=0.0236x elapsed=0:02:11.29    \nframe=  188 fps=1.4 q=21.9 size=     512KiB time=00:00:03.10 bitrate=1353.1kbits/s speed=0.0235x elapsed=0:02:11.81    \nframe=  189 fps=1.4 q=24.2 size=     512KiB time=00:00:03.11 bitrate=1345.9kbits/s speed=0.0236x elapsed=0:02:12.33    \nframe=  191 fps=1.4 q=24.3 size=     512KiB time=00:00:03.15 bitrate=1331.6kbits/s speed=0.0237x elapsed=0:02:12.87    \nframe=  191 fps=1.4 q=24.3 size=     512KiB time=00:00:03.15 bitrate=1331.6kbits/s speed=0.0236x elapsed=0:02:13.39    \nframe=  192 fps=1.4 q=16.2 size=     512KiB time=00:00:03.16 bitrate=1324.6kbits/s speed=0.0236x elapsed=0:02:13.91    \nframe=  192 fps=1.4 q=16.2 size=     512KiB time=00:00:03.16 bitrate=1324.6kbits/s speed=0.0236x elapsed=0:02:14.44    \nframe=  193 fps=1.4 q=22.0 size=     512KiB time=00:00:03.18 bitrate=1317.7kbits/s speed=0.0236x elapsed=0:02:14.96    \nframe=  193 fps=1.4 q=22.0 size=     512KiB time=00:00:03.18 bitrate=1317.7kbits/s speed=0.0235x elapsed=0:02:15.47    \nframe=  194 fps=1.4 q=25.0 size=     512KiB time=00:00:03.20 bitrate=1310.8kbits/s speed=0.0235x elapsed=0:02:15.99    \nframe=  195 fps=1.4 q=24.4 size=     512KiB time=00:00:03.21 bitrate=1304.0kbits/s speed=0.0236x elapsed=0:02:16.51    \nframe=  196 fps=1.4 q=23.9 size=     512KiB time=00:00:03.23 bitrate=1297.3kbits/s speed=0.0236x elapsed=0:02:17.04    \nframe=  196 fps=1.4 q=23.9 size=     512KiB time=00:00:03.23 bitrate=1297.3kbits/s speed=0.0235x elapsed=0:02:17.56    \nframe=  197 fps=1.4 q=16.4 size=     512KiB time=00:00:03.25 bitrate=1290.7kbits/s speed=0.0235x elapsed=0:02:18.08    \nframe=  197 fps=1.4 q=16.4 size=     512KiB time=00:00:03.25 bitrate=1290.7kbits/s speed=0.0234x elapsed=0:02:18.62    \nframe=  198 fps=1.4 q=22.9 size=     512KiB time=00:00:03.26 bitrate=1284.1kbits/s speed=0.0235x elapsed=0:02:19.15    \nframe=  200 fps=1.4 q=24.1 size=     512KiB time=00:00:03.30 bitrate=1271.1kbits/s speed=0.0236x elapsed=0:02:19.69    \nframe=  201 fps=1.4 q=23.5 size=     512KiB time=00:00:03.31 bitrate=1264.7kbits/s speed=0.0237x elapsed=0:02:20.20    \nframe=  201 fps=1.4 q=23.5 size=     512KiB time=00:00:03.31 bitrate=1264.7kbits/s speed=0.0236x elapsed=0:02:20.75    \nframe=  201 fps=1.4 q=23.5 size=     512KiB time=00:00:03.31 bitrate=1264.7kbits/s speed=0.0235x elapsed=0:02:21.29    \nframe=  201 fps=1.4 q=23.5 size=     512KiB time=00:00:03.31 bitrate=1264.7kbits/s speed=0.0234x elapsed=0:02:21.79    \nframe=  202 fps=1.4 q=16.2 size=     512KiB time=00:00:03.33 bitrate=1258.4kbits/s speed=0.0234x elapsed=0:02:22.31    \nframe=  203 fps=1.4 q=22.2 size=     512KiB time=00:00:03.35 bitrate=1252.1kbits/s speed=0.0235x elapsed=0:02:22.84    \nframe=  204 fps=1.4 q=25.2 size=     512KiB time=00:00:03.36 bitrate=1245.9kbits/s speed=0.0235x elapsed=0:02:23.37    \nframe=  205 fps=1.4 q=24.2 size=     512KiB time=00:00:03.38 bitrate=1239.8kbits/s speed=0.0235x elapsed=0:02:23.88    \nframe=  205 fps=1.4 q=24.2 size=     512KiB time=00:00:03.38 bitrate=1239.8kbits/s speed=0.0234x elapsed=0:02:24.41    \nframe=  207 fps=1.4 q=16.6 size=     512KiB time=00:00:03.41 bitrate=1227.7kbits/s speed=0.0236x elapsed=0:02:24.92    \nframe=  208 fps=1.4 q=22.9 size=     512KiB time=00:00:03.43 bitrate=1221.7kbits/s speed=0.0236x elapsed=0:02:25.43    \nframe=  209 fps=1.4 q=25.0 size=     512KiB time=00:00:03.45 bitrate=1215.8kbits/s speed=0.0236x elapsed=0:02:25.94    \nframe=  210 fps=1.4 q=23.3 size=     512KiB time=00:00:03.46 bitrate=1210.0kbits/s speed=0.0237x elapsed=0:02:26.46    \nframe=  211 fps=1.4 q=24.7 size=     512KiB time=00:00:03.48 bitrate=1204.2kbits/s speed=0.0237x elapsed=0:02:26.99    \nframe=  212 fps=1.4 q=16.3 size=     512KiB time=00:00:03.50 bitrate=1198.5kbits/s speed=0.0237x elapsed=0:02:27.49    \nframe=  212 fps=1.4 q=16.3 size=     512KiB time=00:00:03.50 bitrate=1198.5kbits/s speed=0.0236x elapsed=0:02:28.02    \nframe=  214 fps=1.4 q=25.0 size=     512KiB time=00:00:03.53 bitrate=1187.2kbits/s speed=0.0238x elapsed=0:02:28.57    \nframe=  215 fps=1.4 q=23.2 size=     512KiB time=00:00:03.55 bitrate=1181.6kbits/s speed=0.0238x elapsed=0:02:29.07    \nframe=  216 fps=1.4 q=23.6 size=     512KiB time=00:00:03.56 bitrate=1176.1kbits/s speed=0.0238x elapsed=0:02:29.61    \nframe=  217 fps=1.4 q=16.9 size=     512KiB time=00:00:03.58 bitrate=1170.6kbits/s speed=0.0239x elapsed=0:02:30.13    \nframe=  218 fps=1.4 q=21.7 size=     512KiB time=00:00:03.60 bitrate=1165.2kbits/s speed=0.0239x elapsed=0:02:30.63    \nframe=  218 fps=1.4 q=21.7 size=     512KiB time=00:00:03.60 bitrate=1165.2kbits/s speed=0.0238x elapsed=0:02:31.15    \nframe=  219 fps=1.4 q=23.8 size=     512KiB time=00:00:03.61 bitrate=1159.8kbits/s speed=0.0238x elapsed=0:02:31.68    \nframe=  219 fps=1.4 q=23.8 size=     512KiB time=00:00:03.61 bitrate=1159.8kbits/s speed=0.0238x elapsed=0:02:32.20    \nframe=  219 fps=1.4 q=23.8 size=     512KiB time=00:00:03.61 bitrate=1159.8kbits/s speed=0.0237x elapsed=0:02:32.72    \nframe=  221 fps=1.4 q=23.7 size=     512KiB time=00:00:03.65 bitrate=1149.2kbits/s speed=0.0238x elapsed=0:02:33.24    \nframe=  221 fps=1.4 q=23.7 size=     512KiB time=00:00:03.65 bitrate=1149.2kbits/s speed=0.0237x elapsed=0:02:33.75    \nframe=  221 fps=1.4 q=23.7 size=     512KiB time=00:00:03.65 bitrate=1149.2kbits/s speed=0.0237x elapsed=0:02:34.27    \nframe=  222 fps=1.4 q=16.1 size=     512KiB time=00:00:03.66 bitrate=1144.0kbits/s speed=0.0237x elapsed=0:02:34.82    \nframe=  222 fps=1.4 q=16.1 size=     512KiB time=00:00:03.66 bitrate=1144.0kbits/s speed=0.0236x elapsed=0:02:35.32    \nframe=  223 fps=1.4 q=21.1 size=     512KiB time=00:00:03.68 bitrate=1138.8kbits/s speed=0.0236x elapsed=0:02:35.85    \nframe=  223 fps=1.4 q=21.1 size=     512KiB time=00:00:03.68 bitrate=1138.8kbits/s speed=0.0236x elapsed=0:02:36.37    \nframe=  224 fps=1.4 q=24.0 size=     512KiB time=00:00:03.70 bitrate=1133.7kbits/s speed=0.0236x elapsed=0:02:36.89    \nframe=  224 fps=1.4 q=24.0 size=     512KiB time=00:00:03.70 bitrate=1133.7kbits/s speed=0.0235x elapsed=0:02:37.40    \nframe=  225 fps=1.4 q=23.0 size=     512KiB time=00:00:03.71 bitrate=1128.6kbits/s speed=0.0235x elapsed=0:02:37.94    \nframe=  226 fps=1.4 q=24.6 size=     512KiB time=00:00:03.73 bitrate=1123.6kbits/s speed=0.0236x elapsed=0:02:38.45    \nframe=  226 fps=1.4 q=24.6 size=     512KiB time=00:00:03.73 bitrate=1123.6kbits/s speed=0.0235x elapsed=0:02:38.98    \nframe=  226 fps=1.4 q=24.6 size=     512KiB time=00:00:03.73 bitrate=1123.6kbits/s speed=0.0234x elapsed=0:02:39.53    \nframe=  227 fps=1.4 q=16.8 size=     512KiB time=00:00:03.75 bitrate=1118.6kbits/s speed=0.0234x elapsed=0:02:40.10    \nframe=  227 fps=1.4 q=16.8 size=     512KiB time=00:00:03.75 bitrate=1118.6kbits/s speed=0.0233x elapsed=0:02:40.64    \nframe=  227 fps=1.4 q=16.8 size=     512KiB time=00:00:03.75 bitrate=1118.6kbits/s speed=0.0233x elapsed=0:02:41.21    \nframe=  228 fps=1.4 q=23.7 size=     512KiB time=00:00:03.76 bitrate=1113.6kbits/s speed=0.0233x elapsed=0:02:41.73    \nframe=  229 fps=1.4 q=26.0 size=     512KiB time=00:00:03.78 bitrate=1108.7kbits/s speed=0.0233x elapsed=0:02:42.26    \nframe=  229 fps=1.4 q=26.0 size=     512KiB time=00:00:03.78 bitrate=1108.7kbits/s speed=0.0232x elapsed=0:02:42.81    \nframe=  230 fps=1.4 q=26.2 size=     512KiB time=00:00:03.80 bitrate=1103.9kbits/s speed=0.0233x elapsed=0:02:43.33    \nframe=  231 fps=1.4 q=26.1 size=     512KiB time=00:00:03.81 bitrate=1099.0kbits/s speed=0.0233x elapsed=0:02:43.84    \nframe=  231 fps=1.4 q=26.1 size=     512KiB time=00:00:03.81 bitrate=1099.0kbits/s speed=0.0232x elapsed=0:02:44.36    \nframe=  231 fps=1.4 q=26.1 size=     512KiB time=00:00:03.81 bitrate=1099.0kbits/s speed=0.0231x elapsed=0:02:44.88    \nframe=  232 fps=1.4 q=17.2 size=     512KiB time=00:00:03.83 bitrate=1094.3kbits/s speed=0.0232x elapsed=0:02:45.38    \nframe=  232 fps=1.4 q=17.2 size=     512KiB time=00:00:03.83 bitrate=1094.3kbits/s speed=0.0231x elapsed=0:02:45.91    \nframe=  232 fps=1.4 q=17.2 size=     512KiB time=00:00:03.83 bitrate=1094.3kbits/s speed=0.023x elapsed=0:02:46.47    \nframe=  233 fps=1.4 q=25.8 size=     512KiB time=00:00:03.85 bitrate=1089.5kbits/s speed=0.0231x elapsed=0:02:47.00    \nframe=  234 fps=1.4 q=27.4 size=     512KiB time=00:00:03.86 bitrate=1084.8kbits/s speed=0.0231x elapsed=0:02:47.52    \nframe=  235 fps=1.4 q=26.3 size=     512KiB time=00:00:03.88 bitrate=1080.2kbits/s speed=0.0231x elapsed=0:02:48.04    \nframe=  235 fps=1.4 q=26.3 size=     512KiB time=00:00:03.88 bitrate=1080.2kbits/s speed=0.023x elapsed=0:02:48.56    \nframe=  236 fps=1.4 q=27.2 size=     512KiB time=00:00:03.90 bitrate=1075.6kbits/s speed=0.0231x elapsed=0:02:49.08    \nframe=  236 fps=1.4 q=27.2 size=     512KiB time=00:00:03.90 bitrate=1075.6kbits/s speed=0.023x elapsed=0:02:49.60    \nframe=  237 fps=1.4 q=17.0 size=     512KiB time=00:00:03.91 bitrate=1071.0kbits/s speed=0.023x elapsed=0:02:50.12    \nframe=  238 fps=1.4 q=25.3 size=     512KiB time=00:00:03.93 bitrate=1066.4kbits/s speed=0.023x elapsed=0:02:50.67    \nframe=  238 fps=1.4 q=25.3 size=     512KiB time=00:00:03.93 bitrate=1066.4kbits/s speed=0.023x elapsed=0:02:51.18    \nframe=  239 fps=1.4 q=27.5 size=     512KiB time=00:00:03.95 bitrate=1061.9kbits/s speed=0.023x elapsed=0:02:51.72    \nframe=  240 fps=1.4 q=26.6 size=     512KiB time=00:00:03.96 bitrate=1057.5kbits/s speed=0.023x elapsed=0:02:52.26    \nframe=  241 fps=1.4 q=26.7 size=     512KiB time=00:00:03.98 bitrate=1053.1kbits/s speed=0.0231x elapsed=0:02:52.78    \nframe=  241 fps=1.4 q=26.7 size=     512KiB time=00:00:03.98 bitrate=1053.1kbits/s speed=0.023x elapsed=0:02:53.32    \nframe=  243 fps=1.4 q=24.7 size=     512KiB time=00:00:04.01 bitrate=1044.3kbits/s speed=0.0231x elapsed=0:02:53.84    \nframe=  243 fps=1.4 q=24.7 size=     512KiB time=00:00:04.01 bitrate=1044.3kbits/s speed=0.023x elapsed=0:02:54.37    \nframe=  244 fps=1.4 q=26.1 size=     512KiB time=00:00:04.03 bitrate=1040.0kbits/s speed=0.0231x elapsed=0:02:54.90    \nframe=  244 fps=1.4 q=26.1 size=     512KiB time=00:00:04.03 bitrate=1040.0kbits/s speed=0.023x elapsed=0:02:55.42    \nframe=  244 fps=1.4 q=26.1 size=     512KiB time=00:00:04.03 bitrate=1040.0kbits/s speed=0.0229x elapsed=0:02:55.94    \nframe=  245 fps=1.4 q=26.4 size=     512KiB time=00:00:04.05 bitrate=1035.7kbits/s speed=0.0229x elapsed=0:02:56.47    \nframe=  246 fps=1.4 q=26.5 size=     512KiB time=00:00:04.06 bitrate=1031.5kbits/s speed=0.023x elapsed=0:02:57.00    \nframe=  246 fps=1.4 q=26.5 size=     512KiB time=00:00:04.06 bitrate=1031.5kbits/s speed=0.0229x elapsed=0:02:57.53    \nframe=  246 fps=1.4 q=26.5 size=     512KiB time=00:00:04.06 bitrate=1031.5kbits/s speed=0.0228x elapsed=0:02:58.06    \nframe=  247 fps=1.4 q=14.5 size=     512KiB time=00:00:04.08 bitrate=1027.3kbits/s speed=0.0229x elapsed=0:02:58.60    \nframe=  247 fps=1.4 q=14.5 size=     512KiB time=00:00:04.08 bitrate=1027.3kbits/s speed=0.0228x elapsed=0:02:59.13    \nframe=  247 fps=1.4 q=14.5 size=     512KiB time=00:00:04.08 bitrate=1027.3kbits/s speed=0.0227x elapsed=0:02:59.66    \nframe=  247 fps=1.4 q=14.5 size=     512KiB time=00:00:04.08 bitrate=1027.3kbits/s speed=0.0227x elapsed=0:03:00.20    \nframe=  249 fps=1.4 q=26.4 size=     512KiB time=00:00:04.11 bitrate=1018.9kbits/s speed=0.0228x elapsed=0:03:00.72    \nframe=  251 fps=1.4 q=26.6 size=     512KiB time=00:00:04.15 bitrate=1010.8kbits/s speed=0.0229x elapsed=0:03:01.24    \nframe=  251 fps=1.4 q=26.6 size=     512KiB time=00:00:04.15 bitrate=1010.8kbits/s speed=0.0228x elapsed=0:03:01.75    \nframe=  253 fps=1.4 q=24.6 size=     512KiB time=00:00:04.18 bitrate=1002.7kbits/s speed=0.023x elapsed=0:03:02.27    \nframe=  255 fps=1.4 q=26.9 size=     512KiB time=00:00:04.21 bitrate= 994.8kbits/s speed=0.0231x elapsed=0:03:02.77    \nframe=  256 fps=1.4 q=26.9 size=     512KiB time=00:00:04.23 bitrate= 990.9kbits/s speed=0.0231x elapsed=0:03:03.29    \nframe=  259 fps=1.4 q=27.8 size=     768KiB time=00:00:04.28 bitrate=1468.9kbits/s speed=0.0233x elapsed=0:03:03.81    \nframe=  261 fps=1.4 q=27.4 size=     768KiB time=00:00:04.31 bitrate=1457.6kbits/s speed=0.0234x elapsed=0:03:04.33    \nframe=  262 fps=1.4 q=17.1 size=     768KiB time=00:00:04.33 bitrate=1452.0kbits/s speed=0.0234x elapsed=0:03:04.84    \nframe=  264 fps=1.4 q=27.3 size=     768KiB time=00:00:04.36 bitrate=1440.9kbits/s speed=0.0236x elapsed=0:03:05.36    \nframe=  265 fps=1.4 q=27.5 size=     768KiB time=00:00:04.38 bitrate=1435.4kbits/s speed=0.0236x elapsed=0:03:05.87    \nframe=  267 fps=1.4 q=17.1 size=     768KiB time=00:00:04.41 bitrate=1424.6kbits/s speed=0.0237x elapsed=0:03:06.38    \nframe=  269 fps=1.4 q=27.0 size=     768KiB time=00:00:04.45 bitrate=1413.9kbits/s speed=0.0238x elapsed=0:03:06.91    \nframe=  270 fps=1.4 q=26.3 size=     768KiB time=00:00:04.46 bitrate=1408.6kbits/s speed=0.0238x elapsed=0:03:07.41    \nframe=  273 fps=1.5 q=25.0 size=     768KiB time=00:00:04.51 bitrate=1393.0kbits/s speed=0.024x elapsed=0:03:07.93    \nframe=  274 fps=1.5 q=26.6 size=     768KiB time=00:00:04.53 bitrate=1387.9kbits/s speed=0.0241x elapsed=0:03:08.45    \nframe=  274 fps=1.4 q=26.6 size=     768KiB time=00:00:04.53 bitrate=1387.9kbits/s speed=0.024x elapsed=0:03:08.97    \nframe=  276 fps=1.5 q=25.1 size=     768KiB time=00:00:04.56 bitrate=1377.8kbits/s speed=0.0241x elapsed=0:03:09.48    \nframe=  277 fps=1.5 q=16.8 size=     768KiB time=00:00:04.58 bitrate=1372.8kbits/s speed=0.0241x elapsed=0:03:10.00    \nframe=  278 fps=1.5 q=23.5 size=     768KiB time=00:00:04.60 bitrate=1367.8kbits/s speed=0.0241x elapsed=0:03:10.52    \nframe=  280 fps=1.5 q=25.0 size=     768KiB time=00:00:04.63 bitrate=1357.9kbits/s speed=0.0243x elapsed=0:03:11.02    \nframe=  281 fps=1.5 q=25.0 size=     768KiB time=00:00:04.65 bitrate=1353.1kbits/s speed=0.0243x elapsed=0:03:11.54    \nframe=  282 fps=1.5 q=16.8 size=     768KiB time=00:00:04.66 bitrate=1348.2kbits/s speed=0.0243x elapsed=0:03:12.07    \nframe=  282 fps=1.5 q=16.8 size=     768KiB time=00:00:04.66 bitrate=1348.2kbits/s speed=0.0242x elapsed=0:03:12.59    \nframe=  283 fps=1.5 q=23.1 size=     768KiB time=00:00:04.68 bitrate=1343.4kbits/s speed=0.0243x elapsed=0:03:13.12    \nframe=  284 fps=1.5 q=24.7 size=     768KiB time=00:00:04.70 bitrate=1338.7kbits/s speed=0.0243x elapsed=0:03:13.65    \nframe=  285 fps=1.5 q=24.9 size=     768KiB time=00:00:04.71 bitrate=1334.0kbits/s speed=0.0243x elapsed=0:03:14.18    \nframe=  286 fps=1.5 q=24.9 size=     768KiB time=00:00:04.73 bitrate=1329.3kbits/s speed=0.0243x elapsed=0:03:14.70    \nframe=  286 fps=1.5 q=24.9 size=     768KiB time=00:00:04.73 bitrate=1329.3kbits/s speed=0.0242x elapsed=0:03:15.21    \nframe=  287 fps=1.5 q=17.1 size=     768KiB time=00:00:04.75 bitrate=1324.6kbits/s speed=0.0243x elapsed=0:03:15.72    \nframe=  288 fps=1.5 q=22.6 size=     768KiB time=00:00:04.76 bitrate=1320.0kbits/s speed=0.0243x elapsed=0:03:16.25    \nframe=  289 fps=1.5 q=24.0 size=     768KiB time=00:00:04.78 bitrate=1315.4kbits/s speed=0.0243x elapsed=0:03:16.77    \nframe=  289 fps=1.5 q=24.0 size=     768KiB time=00:00:04.78 bitrate=1315.4kbits/s speed=0.0242x elapsed=0:03:17.27    \nframe=  290 fps=1.5 q=22.7 size=     768KiB time=00:00:04.80 bitrate=1310.8kbits/s speed=0.0243x elapsed=0:03:17.80    \nframe=  291 fps=1.5 q=23.0 size=     768KiB time=00:00:04.81 bitrate=1306.3kbits/s speed=0.0243x elapsed=0:03:18.31    \nframe=  291 fps=1.5 q=23.0 size=     768KiB time=00:00:04.81 bitrate=1306.3kbits/s speed=0.0242x elapsed=0:03:18.82    \nframe=  292 fps=1.5 q=17.4 size=     768KiB time=00:00:04.83 bitrate=1301.8kbits/s speed=0.0242x elapsed=0:03:19.35    \nframe=  292 fps=1.5 q=17.4 size=     768KiB time=00:00:04.83 bitrate=1301.8kbits/s speed=0.0242x elapsed=0:03:19.87    \nframe=  293 fps=1.5 q=19.5 size=     768KiB time=00:00:04.85 bitrate=1297.3kbits/s speed=0.0242x elapsed=0:03:20.40    \nframe=  293 fps=1.5 q=19.5 size=     768KiB time=00:00:04.85 bitrate=1297.3kbits/s speed=0.0241x elapsed=0:03:20.93    \nframe=  294 fps=1.5 q=22.7 size=     768KiB time=00:00:04.86 bitrate=1292.8kbits/s speed=0.0242x elapsed=0:03:21.45    \nframe=  294 fps=1.5 q=22.7 size=     768KiB time=00:00:04.86 bitrate=1292.8kbits/s speed=0.0241x elapsed=0:03:21.97    \nframe=  296 fps=1.5 q=18.2 size=     768KiB time=00:00:04.90 bitrate=1284.0kbits/s speed=0.0242x elapsed=0:03:22.50    \nframe=  296 fps=1.5 q=18.2 size=     768KiB time=00:00:04.90 bitrate=1284.0kbits/s speed=0.0241x elapsed=0:03:23.03    \nframe=  297 fps=1.5 q=18.2 size=     768KiB time=00:00:04.91 bitrate=1279.7kbits/s speed=0.0242x elapsed=0:03:23.57    \nframe=  299 fps=1.5 q=19.2 size=     768KiB time=00:00:04.95 bitrate=1271.1kbits/s speed=0.0243x elapsed=0:03:24.09    \n[mp4 @ 000001ce26871200] Starting second pass: moving the moov atom to the beginning of the file\n[out#0/mp4 @ 000001ce26db4e40] video:887KiB audio:0KiB subtitle:0KiB other streams:0KiB global headers:2KiB muxing overhead: 0.748745%\nframe=  300 fps=1.5 q=20.1 Lsize=     894KiB time=00:00:04.96 bitrate=1474.2kbits/s speed=0.0243x elapsed=0:03:24.47    \nx265 [info]: frame I:      2, Avg QP:25.45  kb/s: 7660.56 \nx265 [info]: frame P:     59, Avg QP:18.60  kb/s: 4908.31 \nx265 [info]: frame B:    239, Avg QP:24.41  kb/s: 546.32  \nx265 [info]: Weighted P-Frames: Y:0.0% UV:0.0%\n\nencoded 300 frames in 204.38s (1.47 fps), 1451.60 kb/s, Avg QP:23.27\n",
  "seconds": 204.6989517211914,
  "probe_out": {}
}